<?xml version="1.0" encoding="utf-8"?>
<!-- Generator: Adobe Illustrator 24.1.0, SVG Export Plug-In . SVG Version: 6.00 Build 0)  -->
<svg version="1.1" id="Ebene_1" xmlns="http://www.w3.org/2000/svg" xmlns:xlink="http://www.w3.org/1999/xlink" x="0px" y="0px"
	 viewBox="0 0 850.4 850.4" style="enable-background:new 0 0 850.4 850.4;" xml:space="preserve">
<style type="text/css">
	.st0{fill:#003D8F;}
</style>
<g id="IONOS">
	<path class="st0" d="M778.7,546.6c-4.1,0-8.2-0.4-12.3-1.2c-17.6-3.6-32.8-14.5-42-30l-0.2-0.4c-4.5-9.1-1.6-19.8,6.9-24.9
		c2.8-1.7,6-2.6,9.3-2.6c6.6,0,12.8,3.6,16.1,9.4c0.2,0.3,0.4,0.7,0.6,1l2,2.7l2.6,2.7c3.3,2.9,7.5,4.9,12,5.8
		c7.2,1.4,14.9-0.4,20.7-4.7c6.1-4.5,9.8-11.1,10.4-18.7c0.6-7.5-2.1-15-7.2-20.1c0,0-55.5-57.7-58-60.3c-1.4-1.5-3.9-4-6.7-8
		c-7.8-11.1-10.3-24.2-9.1-37.2c0.6-8.9,3.3-17.8,7.8-25.7c0,0,2.5-4.3,3.3-5.4c2.9-4.3,8.7-9.8,12.7-12.9c3.8-3,8.9-5.5,10.7-6.4
		c10.9-5.3,24.9-7.7,38.7-4.9c17.1,3.7,31.9,14.3,40.5,29.3c2.5,4.2,3.2,9.1,1.9,14c-1.3,4.8-4.4,8.9-8.8,11.3
		c-2.7,1.6-5.8,2.4-9,2.4c-6.6,0-12.9-3.7-16-9.4c-3.5-6-9.3-10.1-16.2-11.4c-6.7-1.4-14.1,0.3-19.6,4.4c-5.3,4-8.7,10.3-9.3,17.3
		c-0.5,7,1.8,13.6,6.6,18.7l56.8,58.5c12.4,12.8,18.8,30.4,17.6,48.4c-1.6,18.2-10.7,34.7-24.8,45.3
		C805.8,542.1,792.2,546.6,778.7,546.6"/>
	<path class="st0" d="M599,546.6c-33.7,0-61.1-27.4-61.1-61.1V364.8c0-33.7,27.4-61,61.1-61c33.7,0,61,27.4,61,61v120.8
		C660.1,519.2,632.7,546.6,599,546.6 M599,340.6c-13.3,0-24.2,10.8-24.2,24.2v120.8c0,13.6,10.6,24.2,24.2,24.2
		c13.3,0,24.2-10.9,24.2-24.2V364.8C623.2,351.7,612.1,340.6,599,340.6"/>
	<path class="st0" d="M361.7,428.3v99.9c0,10.3-8.1,18.4-18.4,18.4c-10.3,0-18.4-8.1-18.4-18.4V351.8L361.7,428.3z M461.7,498.6
		V322.2c0-10.3-8.1-18.4-18.4-18.4c-10.3,0-18.4,8.1-18.4,18.4v99.9L461.7,498.6z M360.2,314.2c0,0-0.1-0.3-0.2-0.3
		c-3.1-6.1-9.8-10-16.7-10c-1.3,0-2.6,0.1-3.7,0.4c-8.6,1.7-14.6,9.1-14.6,17.9v4.2l101.4,210.1c3.3,6.1,9.7,10.1,16.4,10.1
		c1.5,0,3-0.2,4.2-0.5c8.5-1.8,14.4-9.1,14.4-17.9v-4C461.4,524.2,362.9,319.8,360.2,314.2"/>
	<path class="st0" d="M186.9,546.6c-16.3,0-31.6-6.4-43.2-17.9c-11.5-11.5-17.9-26.9-17.9-43.2V364.8c0-16.3,6.4-31.6,17.9-43.1
		c11.5-11.5,26.9-17.9,43.2-17.9c16.3,0,31.6,6.4,43.1,17.9c11.5,11.5,17.9,26.9,17.9,43.1v120.8c0,16.3-6.4,31.6-17.9,43.2
		C218.5,540.3,203.2,546.6,186.9,546.6 M186.9,340.6c-6.5,0-12.5,2.5-17.1,7.1c-4.6,4.6-7.1,10.6-7.1,17.1v120.8
		c0,6.6,2.5,12.7,7,17.2c4.5,4.5,10.6,7,17.2,7c6.5,0,12.5-2.5,17.1-7.1c4.6-4.6,7.1-10.6,7.1-17.1V364.8c0-6.3-2.6-12.4-7.2-17
		C199.3,343.2,193.2,340.6,186.9,340.6"/>
	<path class="st0" d="M28.7,546.5c-11.2,0-20-8.9-20-20.3V323.9l0-0.4c0.1-11,9-19.8,20.1-19.8c9.2,0,16.9,5.9,19.3,14.8
		c0.1,0.3,0.2,0.8,0.3,1.4l0.1,0.9c0.2,1.1,0.3,2.2,0.3,3.2c0,0,0,199.9,0,202.2C48.8,537.6,40,546.5,28.7,546.5"/>
</g>
</svg>
