<?xml version="1.0" encoding="utf-8"?>
<!-- Generator: Adobe Illustrator 21.0.2, SVG Export Plug-In . SVG Version: 6.00 Build 0)  -->
<svg version="1.1" id="Layer_1" xmlns="http://www.w3.org/2000/svg" xmlns:xlink="http://www.w3.org/1999/xlink" x="0px" y="0px"
	 width="300px" height="300px" viewBox="0 0 300 300" style="enable-background:new 0 0 300 300;" xml:space="preserve">
<style type="text/css">
	.st0{fill:#0090E3;}
</style>
<g>
	<path class="st0" d="M168,0v36.6c54.2,8.7,95.8,56,95.8,112.8c0,24.8-7.9,47.7-21.4,66.5l-59.2-59.4l45.6-45.8v-0.1h-51l-45.7,45.9
		l85,85.1l0,0l25.8,25.9c34.7-27.6,57.1-70.3,57.1-118.1C299.9,72.6,242.2,9,168,0z"/>
	<path class="st0" d="M149.9,263.7c-62.8,0-113.9-51.3-113.9-114.3c0-43.3,24.2-81.1,59.6-100.4v164.1h36.1V36.6V16V0
		C57.7,9,0,72.6,0,149.4C0,232.5,67.3,300,149.9,300c21.8,0,42.4-4.7,61.1-13.1l-28-28.1C172.5,262,161.4,263.7,149.9,263.7z"/>
</g>
</svg>
