<svg id="Layer_1" data-name="Layer 1" xmlns="http://www.w3.org/2000/svg" viewBox="0 0 581.9 590"><defs><style>.cls-1{fill:#f68f1e;}</style></defs><title>mindbody_logo</title><path class="cls-1" d="M587.6,279c3.87,22.78,3.95,45.67,2.43,68.65-1.77,26.81-7.87,52.61-17.15,77.74a12.69,12.69,0,0,1-.57,1.18c3.1-12.1,6.61-24.11,9.2-36.32,2.63-12.39,4.34-25,6.46-37.47l-1.34-.26-6.31,31.14-.53-.09,2.67-17.79-1-.17c-.48,2.09-.88,4.21-1.45,6.27-13.13,47.6-29.76,93.53-63.43,131.19-4.84,5.42-10,10.59-15,15.86a19,19,0,0,1-1.64,1.31c8.59-11.29,17-22,25-32.92a309.12,309.12,0,0,0,52.33-113.91,16.15,16.15,0,0,0-2.52-13.07l-1.42-.2a35.89,35.89,0,0,0-2.1,5.85c-7.54,42.43-22.93,81.7-47.09,117.46a17.12,17.12,0,0,1-2.7,3.21c14.26-22.89,26.08-46.87,34.5-73.75l-2.4,2c16.25-57.73,20.2-115.44-3.23-172.8,23.64,72.39,18.84,143.35-16.13,210.31C499,519.85,442.79,563.06,368.91,582.3c70.88-24.79,126.75-67.17,159.53-136.62q-39.18,73.53-113.19,111.85c15.69-9.11,30.76-19.1,43.05-32.92l-3.67,2.62c-10.4,7.37-20.41,15.39-31.3,21.94-10.7,6.44-22.3,11.4-34,16.12l26.1-16.8-.24-.38-46.45,15.76-.47-1.45c2.49-.7,5-1.33,7.46-2.11,19.2-6.08,38.47-12.1,55.87-22.51,26.47-15.83,48.25-37,66.41-61.7,22.15-30.17,38.41-63.23,47.14-99.81a6.6,6.6,0,0,1,1.18-2.44l-1.53,8.57,1,.33a45.92,45.92,0,0,0,1.75-6.91c1.84-18.84,3.81-37.68,5.12-56.56.32-4.59-1.69-9.34-3.66-14-.51,42.18-8.22,82.52-26.8,120.45,8.93-23.48,15.51-47.54,17.29-72.8-1.3,4.32-2.91,8.58-3.85,13a260.33,260.33,0,0,1-44.74,100.36c-21.73,29.66-48.68,53.83-82,70.28-1.07.53-2.62.08-4,.09.8-1.16,1.33-2.8,2.44-3.4a240.58,240.58,0,0,0,67.27-54.83c16.42-19.06,30.9-39.77,38.57-64,7.19-22.71,13.28-45.84,18.48-69.1,5-22.41,4.8-45.28,1.87-68.09-5.11-39.79-20.51-75.47-43-108.34-.75-1.1-1.61-2.12-2.47-3.14-.13-.16-.48-.12-.87-.21l17.55,34.69-1,.58-12.05-21.54-1.1.52,2.9,6.56c-8.35-11.73-16.39-23.65-28.36-32.19,16.94,20.53,36.11,39.65,40.59,67.13-3.79-7.1-7.56-14.72-11.82-22.07-27.43-47.36-68.69-77.67-119.32-96.28a194.73,194.73,0,0,0-72.26-12.32c-14.83.35-29.54,2.15-43.67,7-2.32.79-4,3.26-6.33,4.25a90.57,90.57,0,0,1-10.56,3.33c-53.82,15.57-95.42,47.46-124.87,94.87-8.18,13.17-12.21,28.37-15.32,43.64L120,203.9l1.14.48-4.09,10.05,1,.62c12.36-24.26,28.57-45.43,47.94-61.77-7.11,8.42-15.88,17.83-23.54,28.07-20.37,27.25-32,58.11-37.17,91.67-7.13,45.89,6.09,87,28.38,126.13,1.38,2.43,2.91,4.78,3.52,7.7-4.28-7.26-8.81-14.38-12.78-21.8S117,369.94,113,362.57c10.88,31.3,28.69,58.34,50.81,82.83-18.61-13.63-32.3-31.73-45.87-50.19.64,1.4,1.26,2.82,1.94,4.2s1.44,2.8,2.17,4.19l-1.05.51-16.78-35.7c5,18.09,13.31,34.6,23.39,50.71-13.43-14.72-33.28-56.11-36-94.42-1.46-20.93-7.52-31.4,12.33-100.57-.73,1.45-1.53,2.86-2.17,4.35-8.25,19-12.56,38.87-14.6,59.61a211.52,211.52,0,0,0,9,86.39c16.51,51.41,49.81,89.58,94.89,118.2,7,4.43,13.65,9.35,20.47,14,2.31,1.59,4,1.79,6.43-.59,1.88-1.8,5.47-1.82,9.55-3-4.32-2.52-8-4.71-11.73-6.82s-7.47-4.11-11.2-6.17L205,489a27.35,27.35,0,0,1,4.11,1.27c6.66,3.24,13.12,6.95,19.94,9.79s13.9,4.9,20.94,7.08c1.17.36,3.56,0,3.89-.74,1.43-3.1,3.25-1.92,5.47-1.3,2.87.79,6,.67,8.83,1.6,12.19,4.05,24.7,7.48,36.27,12.9,6.23,2.92,10.86,9.33,16,14.35,2.15,2.09,4.47,4.39,5.59,7.06,1.43,3.41,1.9,7.27,2.45,11,.25,1.7-.91,3.73-.36,5.23,2.2,6.07.07,11.46-1.56,17.16-1.32,4.6-2.94,8.6-7,11.45-.91.64-1.17,2.14-1.88,3.14-.59.83-1.28,2-2.11,2.18-5.74,1.24-11.5,2.79-17.32,3.23a160.6,160.6,0,0,1-24,.26c-19.8-1.5-39.58-3.95-57.88-12.21-23.43-10.58-46.53-21.91-69.79-32.87a101.75,101.75,0,0,0-11.4-5c-15.68-5.16-27.9-15.24-39.27-26.73q-64.55-65.2-82.3-155.16C9,339.06,8.43,315.1,9.53,291a315.51,315.51,0,0,1,37-135.49c7.08-13.32,15.48-25.94,23.82-38.58C62.72,131.68,55,146.36,49.85,162.28c9.84-18.13,20.26-35.82,33.54-51.66-9.7,13.89-18.76,28.14-25,44.07,14.83-26,34.76-47.47,57.54-66.56C86.64,117,64.66,150.35,52.49,189.81c8.78-19.2,18.38-38,30.92-55.12C75.16,148.26,67.3,162,61.85,177l.95.53c.77-1.44,1.58-2.87,2.3-4.33,9.12-18.58,19.47-36.52,33.25-51.94,8.52-9.53,18.89-17.47,28.75-25.73C154,73,184.52,57.36,218,47.27a8.07,8.07,0,0,0,3.09-1.63c-31.34,7.37-60,20.82-86.56,38.9,34.65-33.38,77.3-47.73,123.18-52.18-9.61,2.28-20.17,4.47-30.55,7.32A311.66,311.66,0,0,0,196.43,50C249,34.69,301.93,29.18,355.88,41.29c-19.19-3.49-38.52-5.25-58.1-3.08l6.2.36C239.79,35.79,182.8,54.14,134.49,97a213.16,213.16,0,0,0-63.32,98.39l24.61-47.76.92.47L80.92,179.4l1.45.78c.86-1.57,1.74-3.12,2.57-4.7,35.36-67.7,89.34-111.95,164.18-129.3,14-3.26,28.65-4.24,43-5.82,29.9-3.29,57.75,5,85.08,15.79,34.92,13.75,68.26,30.3,97.22,54.71,29.63,25,52.07,55.18,68.67,90.21,12.61,26.6,18.64,54.76,23.59,83.37.71,4.08,1.24,8.19,2,12.27a50.09,50.09,0,0,0,1.48,5c4-8.14-3.15-59.46-9.53-68.54L564,245.6l-.73.19c-3.68-11.28-6.94-22.72-11.15-33.79a349.17,349.17,0,0,0-14.55-33.31c-5.48-10.83-11.84-21.23-18.21-31.57s-13.15-20.27-20.1-30.92c24.22,23.7,42.65,50.6,55.19,81.55l1-.42c-.44-1.42-.84-2.85-1.33-4.25a319.6,319.6,0,0,0-27-57.41,22.53,22.53,0,0,1-1.49-4.2,1.57,1.57,0,0,1,.43,0,2.09,2.09,0,0,1,.4.18l1.53,2.1c10.44,18.17,21.53,36,31.17,54.59a277.53,277.53,0,0,1,28.59,90.8c-3-11.4-5.89-22.8-8.91-34.18a58.26,58.26,0,0,0-2.18-5.71l8.28,45.06L581.25,268l-1.12.22,4.2,43.34.46,0V284.15a6.85,6.85,0,0,1,.52,1.68q1,25.05,2,50.11c.08,2,0,3.93,0,5.9a43.76,43.76,0,0,0,2.14-14C589,311.53,588.25,295.26,587.6,279ZM203.34,104.5l-1.3-1.4a19,19,0,0,0-2.35.89c-42.62,22.66-76.74,53.55-96.5,98.66C96,219,89.25,235.34,85.35,253c-3.72,16.83-6.67,33.58-7.48,50.8-.92,19.41,4.07,37.82,8.48,56.36.46,2,1.1,3.87,1.65,5.8l1.36,0C74.53,314.31,78.9,264.1,100.12,215.43Q132.05,142.17,203.34,104.5Zm222.49-4-1.16,1.18,20.42,16.25-4.36-1.26a3.46,3.46,0,0,0,1.62,2.38c9.38,8.19,18.62,16.54,28.15,24.55,9.29,7.8,15.08,19,25.81,25.51,3.21,1.94,5,6.09,7.62,9.13,2.24,2.64,4.65,5.14,7,7.7l1.05-1C489,151,460.8,122.27,425.84,100.48ZM16.94,309.57l1.17.28c.37-.44,1-.86,1.06-1.32,1.57-29.39,7.17-58.13,14-86.68C23.56,250.37,14.14,278.91,16.94,309.57ZM404.82,111l51.7,35.63C441.87,131,424.43,119.5,404.82,111ZM189.3,512.85l.6-.93-38.35-24.58A145.42,145.42,0,0,0,189.3,512.85ZM521.64,224.39l1.62-.73L512.13,199l-1.49.67Zm65.14,105.68-1.86-.24-1.8,22.85,1.23.13Zm-30.87,11.82-1.19-.22-2.06,20.86,1.27.12Zm-12.25,51.18-1.29-.37-5,17.37,1.19.33Z" transform="translate(-9.05 -5)"/><path class="cls-1" d="M149.74,61c47.8-32.6,99.11-54.07,159.48-49.42l-2.88,1.3,28,1.82,0,1.17h-13c17.07,2.44,34.22,3.94,50.06,9.08-13-.95-26.55-2.58-40.13-2.76C317.79,22,304.37,23.33,291,25l37.73,2.59c-29.39-2.36-58.7-2.32-88,2,24-7.07,48.46-9.56,73.22-9.68C254.6,14.94,199.94,29,149.74,61Z" transform="translate(-9.05 -5)"/><path class="cls-1" d="M527.92,133.71l-1.53-2.1-15.3-19.76,3.68,2.71C503.89,98.71,490.13,85.65,475.24,73c12,5.8,40,30.49,54.72,47.89A266.43,266.43,0,0,1,568.71,182l-.15-3.16c3.54-.6,16.12,41,14.32,50.5-2-3.54-3.53-6-4.78-8.65-6.55-13.78-12.36-28-19.7-41.3s-16.13-25.9-24.43-38.71C532.31,138.16,530,136,527.92,133.71Z" transform="translate(-9.05 -5)"/><path class="cls-1" d="M494.87,427.41c-14.39,19.85-31.56,36.75-52.31,49.89A216.85,216.85,0,0,0,509,395.2c-1.75,6.1-3.19,12.32-5.33,18.29q-6.15,17.12-13,34c-11.11,27.27-32,46.36-54.57,63.77-8.18,6.3-17.16,11.56-26,17,11.83-8.89,23.92-17.46,35.42-26.76a122.23,122.23,0,0,0,28.9-33.13c-15.6,20.12-35.15,35.78-55.73,50.26l-.84-.87c3.35-3.27,6.64-6.6,10.06-9.79,11.36-10.63,23.19-20.8,34-31.93,12.79-13.1,23.12-28.18,32-44.23.63-1.14,1.12-2.35,1.68-3.53Z" transform="translate(-9.05 -5)"/><path class="cls-1" d="M516.8,298c-5.55-50.75-28.09-101.94-70.62-143.77l.86-.79,30.6,33.84c-11.25-17.73-25.5-32.82-41.41-46.47C477.21,169.79,517.42,228.49,516.8,298Z" transform="translate(-9.05 -5)"/><path class="cls-1" d="M360.89,11.4,283.8,6.63A241.43,241.43,0,0,1,360.93,10Z" transform="translate(-9.05 -5)"/><path class="cls-1" d="M392.58,117.7c-32-13.94-55.69-17.26-74.68-19.49C340.76,96.76,368.36,104.18,392.58,117.7Z" transform="translate(-9.05 -5)"/><path class="cls-1" d="M552.81,460.31l21.68-61.84C575.51,405.36,560,449.21,552.81,460.31Z" transform="translate(-9.05 -5)"/><path class="cls-1" d="M296,29.07l34.42,1.81,0,1.09c-10.89,0-21.77,0-32.66-.05-.82,0-1.64-.77-2.47-1.18Z" transform="translate(-9.05 -5)"/><path class="cls-1" d="M335,13.09l39.74,5.25-.12.85-39.91-4.84Z" transform="translate(-9.05 -5)"/><path class="cls-1" d="M344,96.23l38.4,11.35-.28,1L343.77,97Z" transform="translate(-9.05 -5)"/><path class="cls-1" d="M415.15,511l-28.23,15.84-.3-.55,27.9-16.42Z" transform="translate(-9.05 -5)"/><path class="cls-1" d="M203.34,104.5Q132.14,142,100.12,215.43C78.9,264.1,74.53,314.31,89.36,365.9l-1.36,0c-.56-1.93-1.19-3.84-1.65-5.8-4.41-18.55-9.4-36.95-8.48-56.36.82-17.22,3.77-34,7.48-50.8,3.9-17.64,10.66-34,17.84-50.34,19.76-45.11,53.88-76,96.5-98.66a19,19,0,0,1,2.35-.89Z" transform="translate(-9.05 -5)"/><path class="cls-1" d="M425.84,100.48C460.8,122.27,489,151,512,184.92l-1.05,1c-2.33-2.56-4.74-5.06-7-7.7-2.58-3-4.42-7.19-7.62-9.13-10.73-6.48-16.52-17.71-25.81-25.51-9.53-8-18.77-16.36-28.15-24.55a3.46,3.46,0,0,1-1.62-2.38l4.36,1.26-20.42-16.25Z" transform="translate(-9.05 -5)"/><path class="cls-1" d="M584.88,284.29l-8.29-45.07a58.26,58.26,0,0,1,2.18,5.71c3,11.38,5.94,22.78,8.91,34.18l-.08-.12c.66,16.28,1.43,32.54,1.88,48.81a43.76,43.76,0,0,1-2.14,14c0-2,.07-3.93,0-5.9q-1-25.06-2-50.11a6.85,6.85,0,0,0-.52-1.68Z" transform="translate(-9.05 -5)"/><path class="cls-1" d="M404.82,111c19.61,8.48,37.05,20,51.7,35.63Z" transform="translate(-9.05 -5)"/><path class="cls-1" d="M584.79,284.15v27.38l-.46,0-4.2-43.34,1.12-.22,3.62,16.27Z" transform="translate(-9.05 -5)"/><path class="cls-1" d="M189.3,512.85a145.42,145.42,0,0,1-37.76-25.51l38.35,24.58Z" transform="translate(-9.05 -5)"/><path class="cls-1" d="M521.64,224.39l-11-24.71,1.49-.67,11.12,24.65Z" transform="translate(-9.05 -5)"/><path class="cls-1" d="M586.78,330.07l-2.43,22.74-1.23-.13,1.8-22.85Z" transform="translate(-9.05 -5)"/><path class="cls-1" d="M555.91,341.89l-2,20.76-1.27-.12,2.06-20.86Z" transform="translate(-9.05 -5)"/><path class="cls-1" d="M543.66,393.08l-5.08,17.34-1.19-.33,5-17.37Z" transform="translate(-9.05 -5)"/></svg>