<svg width="400" height="400" viewBox="0 0 105.83333 105.83334" xmlns="http://www.w3.org/2000/svg"><defs><filter id="a" color-interpolation-filters="sRGB"><feFlood flood-color="#000" flood-opacity=".5" result="flood"/><feComposite in="flood" in2="SourceGraphic" operator="in" result="composite1"/><feGaussianBlur in="composite1" result="blur" stdDeviation="1.8"/><feOffset result="offset"/><feComposite in="SourceGraphic" in2="offset" result="composite2"/></filter><filter id="b" color-interpolation-filters="sRGB"><feFlood flood-color="#000" flood-opacity=".5" result="flood"/><feComposite in="flood" in2="SourceGraphic" operator="in" result="composite1"/><feGaussianBlur in="composite1" result="blur" stdDeviation=".4"/><feOffset dx="1.6" dy=".1" result="offset"/><feComposite in="SourceGraphic" in2="offset" result="composite2"/></filter><filter id="c" color-interpolation-filters="sRGB"><feFlood flood-color="#000" flood-opacity=".5" result="flood"/><feComposite in="flood" in2="SourceGraphic" operator="in" result="composite1"/><feGaussianBlur in="composite1" result="blur" stdDeviation=".4"/><feOffset dx="1.6" dy="1" result="offset"/><feComposite in="SourceGraphic" in2="offset" result="composite2"/></filter></defs><path d="M53.04 1.45a5.2 5.2 0 0 0-2.72.7L10.25 25.27a5.2 5.2 0 0 0-2.6 4.5v46.27a5.2 5.2 0 0 0 2.6 4.5l40.07 23.14a5.2 5.2 0 0 0 5.2 0L95.6 80.54a5.2 5.2 0 0 0 2.6-4.5V29.78a5.2 5.2 0 0 0-2.6-4.5L55.5 2.14a5.2 5.2 0 0 0-2.48-.7zm-.12 11.2L87.8 32.78v40.27L52.9 93.18 18.05 73.05V32.78z" color="#000" fill="#112c4c" solid-color="#000000" style="font-feature-settings:normal;font-variant-alternates:normal;font-variant-caps:normal;font-variant-ligatures:normal;font-variant-numeric:normal;font-variant-position:normal;isolation:auto;mix-blend-mode:normal;shape-padding:0;text-decoration-color:#000000;text-decoration-line:none;text-decoration-style:solid;text-indent:0;text-orientation:mixed;text-transform:none" white-space="normal"/><g filter="url(#a)" transform="matrix(.968 0 0 .968 -6.59 -171.843)"><path d="M61.47 232.2l-36.02-20.8 36.02-20.8 36.03 20.8z" fill="#184880"/><path d="M25.45 211.4l-.17 41.68 36.2 20.9v-41.8z" fill="#1b5393"/><path d="M97.66 211.3v41.78l-36.2 20.7v-41.6z" fill="#143d6c"/></g><path d="M33.86 59.47l3.08-1.78 6.83-2.9-3.08 1.78z" fill="none"/><g filter="url(#b)" transform="translate(0 -191.17)"><path d="M36.95 248.86l6.82-2.9-3.08 1.8-6.84 2.88z" fill="#1b984c"/><path d="M21.33 236.58l3.1-1.78 5.6 3.3-3 1.77z" fill="#217f46"/><path d="M27.03 239.87l3-1.76 6.9 10.76-3.07 1.78z" fill="#188543"/><path d="M43.77 245.97l5.7 3.3-3.1 1.77-5.68-3.3z" fill="#217f46"/><path d="M46.38 251.04l3.1-1.78v22.64l-3.1 1.78z" fill="#1f7641"/><path d="M40.69 247.75l5.68 3.3v22.63l-5.5-3.18v-16.74l-7.02 2.96-7.02-11.06v16.74l-5.5-3.2V236.6l5.7 3.3 6.82 10.76z" fill="#1b934a"/><path d="M26.84 262.4l3.1-1.78v-10.1l-3.1-4.86z" fill="#1f7641"/></g><g transform="translate(1.496 -190.293)" filter="url(#c)"><path d="M60 247.45v25.36l5.1-2.94V259.8l5.33-3.07 5.33-3.08v10.06l5.12-2.95V235.4l-5.12 2.94v10.06l-5.33 3.07-5.33 3.08V244.5z" fill="#158b87"/><g fill="#19a29d"><path d="M72.72 246.64V236.6l3.04 1.74v10.05zM56.95 271.06V245.7l3.04 1.75v25.36zM72.72 261.95v-6.54l3.04-1.75v10.05z"/></g><g fill="#137b77"><path d="M72.72 236.6l5.12-2.96 3.08 1.78-5.16 2.92zM56.95 245.7l5.12-2.95 3.08 1.78-5.16 2.92zM72.72 246.64l-7.62 4.4v3.5l10.66-6.15z"/></g></g></svg>
