<svg width="96px" height="50px" viewBox="113 44 96 50" version="1.1" xmlns="http://www.w3.org/2000/svg" xmlns:xlink="http://www.w3.org/1999/xlink">
    <path d="M188.494545,76.2836364 C185.832714,76.2836364 183.723644,75.5927342 182.167273,74.2109091 C181.367269,74.952731 180.480005,75.4909074 179.505455,75.8254545 C178.530904,76.1600017 177.527278,76.3272727 176.494545,76.3272727 L171.585455,76.3272727 L171.585455,70.8945455 L176.494545,70.8945455 C176.669092,70.8945455 176.919998,70.8654548 177.247273,70.8072727 C177.574547,70.7490906 177.901817,70.6072739 178.229091,70.3818182 C178.556365,70.1563625 178.843635,69.8218204 179.090909,69.3781818 C179.338183,68.9345432 179.461818,68.3200039 179.461818,67.5345455 L179.461818,61.2509091 L184.894545,61.2509091 L184.894545,67.4472727 C184.894545,68.640006 185.174543,69.5090882 185.734545,70.0545455 C186.294548,70.6000027 187.214539,70.8727273 188.494545,70.8727273 C188.669092,70.8727273 188.919998,70.8400003 189.247273,70.7745455 C189.574547,70.7090906 189.901817,70.5600012 190.229091,70.3272727 C190.556365,70.0945443 190.843635,69.7490932 191.090909,69.2909091 C191.338183,68.832725 191.461818,68.2181857 191.461818,67.4472727 L191.461818,61.2509091 L196.872727,61.2509091 L196.872727,67.4472727 C196.872727,68.640006 197.159997,69.5163608 197.734545,70.0763636 C198.309094,70.6363664 199.24363,70.9163636 200.538182,70.9163636 C200.727274,70.9163636 200.985453,70.876364 201.312727,70.7963636 C201.640002,70.7163632 201.963635,70.5563648 202.283636,70.3163636 C202.603638,70.0763624 202.879999,69.7309113 203.112727,69.28 C203.345456,68.8290887 203.461818,68.2181857 203.461818,67.4472727 C203.461818,67.1272711 203.436364,66.7418204 203.385455,66.2909091 C203.334545,65.8399977 203.269091,65.3636389 203.189091,64.8618182 C203.109091,64.3599975 203.018182,63.8509117 202.916364,63.3345455 C202.814545,62.8181792 202.712728,62.3272751 202.610909,61.8618182 C202.50909,61.3963613 202.41091,60.9745473 202.316364,60.5963636 C202.221818,60.2181799 202.145455,59.9200011 202.087273,59.7018182 L207.214545,58.0218182 C207.243637,58.1236369 207.301818,58.3563618 207.389091,58.72 C207.476364,59.0836382 207.581818,59.5345428 207.705455,60.0727273 C207.829092,60.6109118 207.956363,61.2072695 208.087273,61.8618182 C208.218182,62.5163669 208.338181,63.1745421 208.447273,63.8363636 C208.556364,64.4981851 208.647272,65.1454514 208.72,65.7781818 C208.792728,66.4109123 208.829091,66.9672703 208.829091,67.4472727 C208.829091,68.9309165 208.585457,70.2290853 208.098182,71.3418182 C207.610907,72.454551 206.974549,73.3781781 206.189091,74.1127273 C205.403632,74.8472764 204.516369,75.3963618 203.527273,75.76 C202.538177,76.1236382 201.541823,76.3127272 200.538182,76.3272727 C197.832714,76.3272727 195.694553,75.6145526 194.123636,74.1890909 C193.323632,74.9309128 192.440005,75.4654529 191.472727,75.7927273 C190.50545,76.1200016 189.512732,76.2836364 188.494545,76.2836364 Z M161.461818,72.2036364 C161.592728,72.2036364 161.799999,72.1781821 162.083636,72.1272727 C162.367274,72.0763634 162.654544,71.9200013 162.945455,71.6581818 C163.236365,71.3963623 163.494544,70.99273 163.72,70.4472727 C163.945456,69.9018155 164.058182,69.1345504 164.058182,68.1454545 C164.058182,67.7672708 163.989092,67.2836393 163.850909,66.6945455 C163.712727,66.1054516 163.472729,65.5309119 163.130909,64.9709091 C162.789089,64.4109063 162.330912,63.9309111 161.756364,63.5309091 C161.181815,63.1309071 160.458186,62.9309091 159.585455,62.9309091 C158.829087,62.9309091 158.210911,63.1563614 157.730909,63.6072727 C157.250907,64.0581841 156.847274,64.6181785 156.52,65.2872727 C156.192726,65.956367 155.916365,66.6799961 155.690909,67.4581818 C155.465453,68.2363675 155.221819,68.9454513 154.96,69.5854545 C155.498185,69.8909106 156.069088,70.1999984 156.672727,70.5127273 C157.276367,70.8254561 157.869088,71.1054533 158.450909,71.3527273 C159.03273,71.6000012 159.581816,71.8036356 160.098182,71.9636364 C160.614548,72.1236372 161.069089,72.2036364 161.461818,72.2036364 Z M159.585455,57.52 C161.083644,57.52 162.389085,57.7890882 163.501818,58.3272727 C164.614551,58.8654572 165.549087,59.5927227 166.305455,60.5090909 C167.061822,61.4254591 167.632725,62.4872667 168.018182,63.6945455 C168.403638,64.9018242 168.610909,66.1672661 168.64,67.4909091 C168.64,68.3054586 168.799998,68.9418159 169.12,69.4 C169.440002,69.8581841 169.803634,70.1963625 170.210909,70.4145455 C170.618184,70.6327284 171.01818,70.7672725 171.410909,70.8181818 C171.803638,70.8690912 172.072727,70.8945455 172.218182,70.8945455 L172.829091,70.8945455 L172.829091,76.3272727 L172.218182,76.3272727 C171.185449,76.3272727 170.236368,76.1781833 169.370909,75.88 C168.50545,75.5818167 167.716367,75.2000023 167.003636,74.7345455 C166.567271,75.3454576 166.087275,75.8290891 165.563636,76.1854545 C165.039997,76.54182 164.516366,76.8072719 163.992727,76.9818182 C163.469088,77.1563645 162.967275,77.2654543 162.487273,77.3090909 C162.00727,77.3527275 161.592729,77.3745455 161.243636,77.3745455 C160.51636,77.3745455 159.825458,77.3054552 159.170909,77.1672727 C158.51636,77.0290902 157.850912,76.8327285 157.174545,76.5781818 C156.498178,76.3236351 155.796367,76.0109109 155.069091,75.64 C154.341815,75.2690891 153.549095,74.8509114 152.690909,74.3854545 C152.03636,75.0836399 151.334549,75.5818167 150.585455,75.88 C149.83636,76.1781833 148.960005,76.3272727 147.956364,76.3272727 L145.272727,76.3272727 L145.229091,70.8945455 L147.956364,70.8945455 C148.276365,70.8945455 148.556362,70.8000009 148.796364,70.6109091 C149.036365,70.4218172 149.254544,70.1563653 149.450909,69.8145455 C149.647274,69.4727256 149.82909,69.0581843 149.996364,68.5709091 C150.163637,68.0836339 150.334545,67.5418212 150.509091,66.9454545 C150.800001,65.8981766 151.149089,64.8181874 151.556364,63.7054545 C151.963638,62.5927217 152.505451,61.5781864 153.181818,60.6618182 C153.858185,59.74545 154.712722,58.9927302 155.745455,58.4036364 C156.778187,57.8145425 158.058174,57.52 159.585455,57.52 Z M146.167273,70.8945455 L146.167273,76.3272727 L142.938182,76.3272727 C141.701812,76.3272727 140.574551,76.1600017 139.556364,75.8254545 C138.538177,75.4909074 137.680003,74.9963669 136.981818,74.3418182 C136.167269,75.025458 135.203642,75.5272711 134.090909,75.8472727 C132.978176,76.1672743 131.709098,76.3272727 130.283636,76.3272727 L122.734545,76.3272727 L122.734545,70.8945455 L130.283636,70.8945455 C131.170914,70.8945455 131.879997,70.8109099 132.410909,70.6436364 C132.941821,70.4763628 133.341817,70.2690921 133.610909,70.0218182 C133.880001,69.7745442 134.054545,69.4981833 134.134545,69.1927273 C134.214546,68.8872712 134.254545,68.5890924 134.254545,68.2981818 L134.254545,61.2290909 L139.665455,61.2290909 L139.665455,68.1454545 C139.665455,68.8000033 139.810908,69.3127254 140.101818,69.6836364 C140.392729,70.0545473 140.723635,70.3309082 141.094545,70.5127273 C141.465456,70.6945464 141.832725,70.8036362 142.196364,70.84 C142.560002,70.8763638 142.807272,70.8945455 142.938182,70.8945455 L146.167273,70.8945455 Z M125.418182,83.3963636 L129.127273,79.6872727 L132.836364,83.44 L129.127273,87.1490909 L125.418182,83.3963636 Z M134.516364,83.44 L138.269091,79.7309091 L141.978182,83.4836364 L138.269091,87.1927273 L134.516364,83.44 Z M130.174545,89.5490909 L133.621818,86.1018182 L137.112727,89.5927273 L133.665455,93.04 L130.174545,89.5490909 Z M123.607273,76.3272727 C122.007265,76.3272727 120.632733,76.2290919 119.483636,76.0327273 C118.33454,75.8363627 117.367277,75.5454565 116.581818,75.16 C115.79636,74.7745435 115.167275,74.2836393 114.694545,73.6872727 C114.221816,73.0909061 113.861819,72.3927313 113.614545,71.5927273 C113.367271,70.7927233 113.203637,69.8872778 113.123636,68.8763636 C113.043636,67.8654495 113.003636,66.749097 113.003636,65.5272727 L113.003636,44.8654545 L118.436364,44.8654545 L118.436364,65.5272727 C118.436364,66.6909149 118.476363,67.6218147 118.556364,68.32 C118.636364,69.0181853 118.847271,69.5599981 119.189091,69.9454545 C119.530911,70.330911 120.047269,70.5854539 120.738182,70.7090909 C121.429094,70.8327279 122.385448,70.8945455 123.607273,70.8945455 L123.607273,76.3272727 Z" id="Sampa-Logo" stroke="none" fill="#222" fill-rule="evenodd"></path>
</svg>
