<?xml version="1.0" standalone="no"?>
<!DOCTYPE svg PUBLIC "-//W3C//DTD SVG 20010904//EN"
 "http://www.w3.org/TR/2001/REC-SVG-20010904/DTD/svg10.dtd">
<svg version="1.0" xmlns="http://www.w3.org/2000/svg"
 width="96.000000pt" height="96.000000pt" viewBox="0 0 96.000000 96.000000"
 preserveAspectRatio="xMidYMid meet">

<g transform="translate(0.000000,96.000000) scale(0.100000,-0.100000)"
fill="#000000" stroke="none">
<path d="M217 736 c-100 -28 -186 -115 -207 -209 -25 -109 41 -226 158 -284
49 -24 69 -28 142 -28 58 0 99 6 127 17 41 17 45 17 85 0 29 -11 70 -17 128
-17 73 0 93 4 142 28 94 46 168 151 168 237 0 86 -74 191 -168 237 -49 24 -69
28 -142 28 -58 0 -98 -6 -128 -18 -39 -16 -45 -16 -80 -1 -51 22 -166 27 -225
10z m202 -23 c94 -30 180 -129 181 -207 0 -31 24 -66 46 -66 14 0 44 27 44 40
0 18 -33 40 -51 35 -13 -4 -19 -2 -19 8 0 36 68 24 90 -16 31 -56 -33 -109
-98 -81 -31 13 -35 20 -47 95 -8 51 -55 112 -112 146 -43 25 -57 28 -139 28
-83 0 -94 -2 -139 -30 -27 -17 -63 -50 -80 -74 -26 -37 -30 -51 -30 -111 0
-60 4 -74 30 -111 46 -66 113 -103 194 -107 37 -2 84 1 106 7 51 14 84 -2 40
-19 -52 -21 -156 -24 -217 -6 -64 18 -139 79 -168 137 -26 50 -26 140 -1 194
24 53 103 122 160 139 63 20 148 19 210 -1z m328 2 c60 -18 135 -81 164 -137
27 -53 27 -142 0 -196 -27 -53 -101 -117 -158 -136 -59 -20 -145 -20 -210 -1
-94 28 -182 130 -183 212 0 24 -7 37 -25 49 -24 16 -27 16 -45 -1 -24 -22 -25
-29 -4 -50 9 -9 24 -13 35 -10 13 4 19 2 19 -8 0 -36 -67 -24 -89 15 -32 56
32 110 97 82 31 -13 35 -19 47 -95 8 -51 55 -112 111 -145 64 -38 180 -46 245
-17 181 80 201 285 36 387 -54 33 -155 46 -221 28 -25 -7 -45 -8 -55 -2 -9 5
-14 10 -11 10 3 0 23 7 45 15 52 19 139 19 202 0z m-332 -50 c73 -30 134 -112
135 -181 0 -75 105 -113 164 -59 55 51 17 131 -67 137 -56 4 -62 28 -7 28 47
0 92 -20 114 -52 20 -29 20 -87 0 -116 -64 -92 -234 -53 -234 53 0 53 -40 117
-93 149 -87 53 -218 34 -276 -40 -95 -121 -2 -278 164 -277 33 0 66 2 74 4 7
2 15 -1 18 -8 6 -16 -32 -26 -97 -26 -199 2 -299 199 -171 336 64 69 180 91
276 52z m323 3 c100 -30 168 -159 133 -251 -16 -42 -74 -99 -120 -120 -54 -24
-151 -26 -201 -5 -78 33 -139 112 -140 183 -1 77 -105 115 -164 60 -55 -51
-17 -131 67 -137 56 -4 62 -28 7 -28 -47 0 -92 20 -114 52 -20 29 -20 87 0
116 36 52 123 68 181 32 38 -23 48 -41 57 -100 9 -63 37 -104 92 -136 86 -51
216 -31 273 42 87 110 18 254 -134 278 -22 4 -56 2 -75 -4 -22 -6 -38 -6 -44
0 -33 33 92 46 182 18z m-363 -39 c59 -16 112 -76 121 -136 3 -27 13 -61 21
-76 17 -33 82 -66 131 -67 42 0 104 32 125 64 23 35 22 101 -3 136 -26 36 -98
65 -145 57 -31 -5 -55 6 -42 19 12 12 77 15 115 5 84 -23 142 -102 128 -176
-13 -67 -98 -134 -171 -135 -96 0 -178 63 -191 147 -3 27 -13 61 -21 76 -16
32 -82 67 -128 67 -47 0 -112 -35 -129 -69 -21 -39 -20 -95 1 -127 25 -39 87
-66 141 -62 48 3 70 -15 30 -26 -93 -25 -207 41 -224 129 -13 70 35 143 112
170 48 17 77 18 129 4z m-45 -149 c0 -21 -24 -28 -35 -10 -8 14 3 30 21 30 8
0 14 -9 14 -20z m335 0 c0 -8 -8 -16 -17 -18 -13 -2 -18 3 -18 18 0 15 5 20
18 18 9 -2 17 -10 17 -18z"/>
</g>
</svg>
