<svg width="32" height="32" viewBox="0 0 32 32" fill="none" xmlns="http://www.w3.org/2000/svg">
<path fill-rule="evenodd" clip-rule="evenodd" d="M18.7305 3.68782L25.3016 7.48189C25.4914 7.28116 25.7091 7.10888 25.948 6.97038C27.3108 6.18691 29.049 6.65208 29.8406 8.01495C30.6241 9.37781 30.1589 11.116 28.7961 11.9076C28.5589 12.0441 28.3033 12.1459 28.0371 12.2097V19.8007C28.3004 19.8646 28.5532 19.9657 28.788 20.1008C30.1589 20.8924 30.6241 22.6307 29.8325 23.9936C29.049 25.3563 27.3027 25.8215 25.9398 25.0381C25.6758 24.8867 25.4379 24.6936 25.2354 24.4663L18.7043 28.237C18.7999 28.5266 18.8485 28.8297 18.8482 29.1347C18.8482 30.7016 17.5752 31.9829 16.0001 31.9829C14.4251 31.9829 13.1521 30.7097 13.1521 29.1347C13.1521 28.8547 13.1923 28.5843 13.2673 28.3289L6.69794 24.536C6.51031 24.7327 6.29567 24.9018 6.06045 25.0381C4.68948 25.8215 2.95121 25.3563 2.16773 23.9936C1.38437 22.6307 1.84954 20.8924 3.21229 20.1008C3.44706 19.9656 3.69986 19.8645 3.96311 19.8005V12.2097C3.69696 12.1459 3.44137 12.0441 3.20418 11.9076C1.84132 11.1242 1.37614 9.37781 2.15962 8.01495C2.9431 6.65208 4.68937 6.18691 6.05223 6.97038C6.28988 7.10814 6.50652 7.27931 6.6955 7.47867L13.2685 3.6836C13.191 3.42062 13.1518 3.14785 13.1521 2.87368C13.1521 1.29884 14.4251 0.0256348 16.0001 0.0256348C17.5752 0.0256348 18.8482 1.29873 18.8482 2.87368C18.8482 3.15677 18.8071 3.42996 18.7305 3.68782ZM18.0459 4.85682L24.6327 8.65977C24.5278 9.02641 24.4977 9.41039 24.5443 9.78889C24.5908 10.1674 24.7129 10.5327 24.9035 10.863C25.3044 11.5605 25.9576 12.0229 26.6825 12.2031V19.8034C26.6455 19.8124 26.6087 19.8223 26.5722 19.8328L17.9694 4.93292C17.9954 4.90803 18.0209 4.8827 18.0459 4.85693V4.85682ZM14.0327 4.93459L5.42996 19.8342C5.39276 19.8235 5.35535 19.8135 5.31775 19.8042V12.2031C6.04268 12.0229 6.69583 11.5605 7.09679 10.863C7.28771 10.532 7.40998 10.166 7.45631 9.78672C7.50263 9.40745 7.47207 9.02274 7.36643 8.65555L13.9513 4.85371C13.9779 4.88115 14.005 4.90815 14.0327 4.93448V4.93459ZM16.7959 5.60952L25.3966 20.5058C25.1996 20.6938 25.0307 20.9092 24.8952 21.1454C24.7601 21.3802 24.659 21.633 24.595 21.8962H7.40543C7.34141 21.633 7.24025 21.3802 7.10502 21.1454C6.96903 20.9108 6.80048 20.6967 6.6044 20.5095L15.2068 5.61019C15.4647 5.68445 15.7317 5.722 16.0001 5.72173C16.2764 5.72173 16.5434 5.68262 16.7959 5.60952ZM18.1064 27.216L24.6504 23.4377C24.6308 23.3761 24.6132 23.3137 24.5978 23.2509H7.40176C7.39265 23.2879 7.38277 23.3245 7.37221 23.3611L13.9482 27.1579C14.2138 26.8818 14.5325 26.6622 14.8851 26.5125C15.2377 26.3628 15.617 26.286 16.0001 26.2867C16.3966 26.286 16.7889 26.3683 17.1516 26.5284C17.5144 26.6884 17.8396 26.9227 18.1064 27.216V27.216Z" fill="#E535AB"/>
</svg>
