<?xml version="1.0" encoding="utf-8"?>
<!-- Generator: Adobe Illustrator 24.1.1, SVG Export Plug-In . SVG Version: 6.00 Build 0)  -->
<svg version="1.1" xmlns="http://www.w3.org/2000/svg" xmlns:xlink="http://www.w3.org/1999/xlink" x="0px" y="0px"
	 viewBox="0 0 378.89 374.34" style="enable-background:new 0 0 378.89 374.34;" xml:space="preserve">
<style type="text/css">
	.st0{fill:#008ECE;}
</style>
<g id="Layer_1">
	<g>
		<g>
			<path class="st0" d="M368.92,120.13c-0.41-26-10.45-51.68-27.81-71.04c-0.24-0.27-0.48-0.55-0.74-0.82
				c-0.11-0.12-0.22-0.24-0.33-0.36l-0.01-0.01c-2.6-2.89-5.36-5.61-8.28-8.17c-0.28-0.25-0.56-0.5-0.85-0.74
				c-0.35-0.31-0.7-0.6-1.06-0.89c-13.15-11.09-28.93-18.97-45.65-22.99c-0.02,0-0.03-0.01-0.05-0.01c-2.4-0.57-4.81-1.07-7.24-1.48
				c-1.47-0.26-2.95-0.48-4.43-0.66c-2.96-0.39-5.93-0.65-8.91-0.78H84.28c-16.81,0.98-33.34,7.2-46.24,18.11
				C20.4,44.8,9.84,67.37,9.96,90.21c-0.01,24.59-0.01,49.17-0.01,73.76c0,34.21,0,68.41,0.01,102.62v24.63
				c-0.01,0.02-0.02,0.03-0.02,0.04c0.02,20.32-0.08,40.64,0.05,60.96c-0.13,5.26,4.56,9.92,9.79,9.88
				c19.39,0.07,38.78,0.04,58.17,0.01c5.38,0.24,10.36-4.51,10.16-9.94c0.07-20.65-0.03-41.3,0.04-61.96
				c0.01,0.01,0.01,0.02,0.02,0.03c-0.15-11.67-0.22-23.35-0.24-35.02l-0.01-10.49c0-28.13,0.18-56.27-0.09-84.39
				c-0.01-0.05-0.01-0.11,0-0.16v-13.56c0-5.5,0-11.01-0.02-16.51c-0.09-12.44,6.1-24.7,16.1-32.08c3.12-2.36,6.6-4.22,10.26-5.54
				c4.4-1.6,9.07-2.44,13.75-2.45c38.69,0.05,77.37,0.01,116.06,0.02c3.11,0.03,6.23-0.1,9.34,0.03c1.6,0.07,3.2,0.21,4.8,0.47
				c11.13,1.77,21.32,8.78,26.88,18.6c0.06,0.1,0.13,0.22,0.21,0.37c0.08,0.14,0.17,0.31,0.27,0.5c0.1,0.19,0.21,0.4,0.33,0.63
				c2.56,4.9,4.02,10.35,4.26,15.87c0.02,0.3,0.03,0.61,0.04,0.92c0.02,0.62,0.02,1.26,0,1.9c-0.01,0.42-0.03,0.83-0.06,1.25
				c-0.03,0.42-0.06,0.84-0.1,1.25c-0.08,0.84-0.2,1.67-0.33,2.5c-0.11,0.69-0.25,1.38-0.42,2.08
				c-3.01,14.55-15.37,26.37-29.83,29.19c0,0-0.01,0.01-0.02,0c-1.79,0.36-3.62,0.57-5.46,0.63c-9.33,0.04-18.66,0.06-27.99,0.06
				c-17.66,0-35.32-0.04-52.98,0c-6.48,0-13,1.25-18.87,4.05c-14.96,6.79-25.48,22.33-26.03,38.78
				c-0.18,11.68-0.02,23.36-0.07,35.04c44-0.01,87.99,0.03,131.99-0.02c24.48-0.14,48.78-8.81,67.82-24.2
				c22.01-17.55,36.85-43.83,40.28-71.8C369.26,138.87,368.93,129.48,368.92,120.13z"/>
		</g>
	</g>
</g>
<g id="Layer_2">
</g>
</svg>
