<svg xmlns="http://www.w3.org/2000/svg" xmlns:xlink="http://www.w3.org/1999/xlink" viewBox="0 0 68.039 69.039" fill="#fff" fill-rule="evenodd" stroke="#000" stroke-linecap="round" stroke-linejoin="round"><use xlink:href="#C" x="2.02" y="2.02"/><defs><radialGradient id="A" cx="64%" cy="12%" r="73%" fx="64%" fy="12%"><stop offset="2.2%" stop-color="#fff2ee"/><stop offset="25.1%" stop-color="#f9826d"/><stop offset="40.6%" stop-color="#f7270a"/><stop offset="50%" stop-color="#e62308"/><stop offset="96.6%" stop-color="#cf2109"/></radialGradient><radialGradient id="B" cx="77%" cy="13%" r="162%" fx="77%" fy="13%"><stop offset="2.2%" stop-color="#fde6df"/><stop offset="64%" stop-color="#f84a31"/><stop offset="84.3%" stop-color="#cf2109"/></radialGradient></defs><symbol id="C" overflow="visible"><g stroke="none" fill-rule="nonzero"><path d="M0 31.998A31.93 31.93 0 0 1 31.998 0a31.93 31.93 0 0 1 31.998 31.998 31.93 31.93 0 0 1-31.998 31.998A31.93 31.93 0 0 1 0 31.998z" fill="url(#A)"/><path d="M42.908 8.135c.186-.186 7.214-.553 7.214-.739 0-.372-5.178-.186-7.214 0 .929-.372 4.443-1.478 4.443-1.85s-6.059 1.664-6.842 1.85C35.144 2.953 30.007 1.107 25.341.921c-2.403.553-4.847 1.478-7.028 2.403 5.364-1.111 11.471-.739 17.942 2.775-10.502-3.328-19.606-1.478-26.081 2.775-4.067 3.886-6.842 8.511-8.51 13.875C7.214 11.096 19.606 3.51 35.884 7.21 12.763 6.471 2.589 22.155.553 36.615a30.7 30.7 0 0 0 5.55 13.693C.925 34.03 8.688 9.613 36.251 8.139 6.846 14.056 4.435 45.138 13.499 57.526c2.735 1.939 5.722 3.495 8.878 4.625C9.06 53.087 10.17 17.017 37.176 9.064c-24.235 11.471-23.492 47.169-8.139 54.751.98.148 1.97.211 2.961.186a28.71 28.71 0 0 0 5.736-.553c-15.906-5.55-22.753-42.359 2.036-54.383l.739.739c3.151 2.403 9.435 8.878 9.803 8.692s-5.55-6.059-7.767-8.51c2.961 1.293 9.29 4.847 9.435 4.625s-6.059-4.068-9.435-5.736c3.328.553 9.435 1.85 9.435 1.664.372-.372-5.364-1.664-9.064-2.403z" fill="url(#B)"/></g></symbol></svg>