<?xml version="1.0" encoding="UTF-8" standalone="no"?>
<svg
   xmlns:dc="http://purl.org/dc/elements/1.1/"
   xmlns:cc="http://creativecommons.org/ns#"
   xmlns:rdf="http://www.w3.org/1999/02/22-rdf-syntax-ns#"
   xmlns:svg="http://www.w3.org/2000/svg"
   xmlns="http://www.w3.org/2000/svg"
   xmlns:sodipodi="http://sodipodi.sourceforge.net/DTD/sodipodi-0.dtd"
   xmlns:inkscape="http://www.inkscape.org/namespaces/inkscape"
   version="1.1"
   id="Layer_2"
   x="0px"
   y="0px"
   viewBox="206 369.5 34.90094 35"
   enable-background="new 206 369.5 200 53"
   xml:space="preserve"
   sodipodi:docname="logo.svg"
   width="34.90094"
   height="35"
   inkscape:version="1.0.1 (3bc2e813f5, 2020-09-07)"><metadata
   id="metadata43"><rdf:RDF><cc:Work
       rdf:about=""><dc:format>image/svg+xml</dc:format><dc:type
         rdf:resource="http://purl.org/dc/dcmitype/StillImage" /></cc:Work></rdf:RDF></metadata><defs
   id="defs41">
	
	
	
	
	
	
	
	
	
	
	
	
	
</defs><sodipodi:namedview
   pagecolor="#ffffff"
   bordercolor="#666666"
   borderopacity="1"
   objecttolerance="10"
   gridtolerance="10"
   guidetolerance="10"
   inkscape:pageopacity="0"
   inkscape:pageshadow="2"
   inkscape:window-width="2254"
   inkscape:window-height="910"
   id="namedview39"
   showgrid="false"
   inkscape:zoom="7.045"
   inkscape:cx="-65"
   inkscape:cy="26.1"
   inkscape:window-x="0"
   inkscape:window-y="27"
   inkscape:window-maximized="0"
   inkscape:current-layer="Layer_2" />
<g
   id="g32"
   transform="translate(-165,-0.4)">
		<g
   id="g26">
			<path
   fill="#00a6ca"
   d="m 388.4,369.9 c -6.5,0 -12.2,3.5 -15.2,8.8 -1.1,2.1 -1.3,3.9 -0.4,5.4 1,1.8 3.3,2 4.5,2 h 2.2 l -0.8,2.5 c -0.5,1.5 -0.3,3.2 0.5,4.3 0.8,1.1 2,1.7 3.5,1.7 1,0 2.1,-0.2 3.1,-0.6 -0.3,-0.4 -0.5,-0.8 -0.7,-1.3 -0.1,-0.4 -0.3,-0.8 -0.3,-1.3 -0.6,0.3 -1.3,0.4 -2,0.4 -0.4,0 -1,-0.1 -1.3,-0.6 -0.3,-0.4 -0.4,-1 -0.2,-1.7 l 1.1,-3.4 h 3.5 l 0.9,-2.9 h -3.4 l 1.5,-4.7 h -3 l -1.5,4.7 h -3.2 c -1,0 -1.6,-0.3 -1.9,-0.8 -0.3,-0.6 0,-1.8 0.8,-3.2 v -0.1 c 2.7,-3.9 7.1,-6.5 12.2,-6.5 8.1,0 14.7,6.6 14.7,14.7 0,8.1 -6.6,14.7 -14.7,14.7 -7.2,0 -13.2,-5.2 -14.5,-12 l -2.8,0.6 c 1.6,8.1 8.7,14.3 17.3,14.3 9.7,0 17.6,-7.9 17.6,-17.6 0.1,-9.5 -7.8,-17.4 -17.5,-17.4 z"
   id="path24" />
		</g>
		<g
   id="g30">
			<path
   fill="#00a6ca"
   d="m 399.6,392.3 c -0.7,0 -1.6,-0.1 -2.2,-0.5 -0.2,-0.2 -0.5,-0.4 -0.6,-0.9 v 0 c 0,-0.2 0,-0.5 0.1,-0.8 l 2.2,-6.7 v 0 h -3 v 0 l -1.9,5.8 c 0,0 0,0 0,0 -0.5,1.5 -2.1,2.7 -3.5,2.7 -0.4,0 -0.9,-0.1 -1.1,-0.5 -0.2,-0.3 -0.4,-0.7 -0.1,-1.4 l 2.2,-6.7 h -3 l -1.9,5.8 c -0.5,1.4 -0.3,2.9 0.5,4 0.8,1 1.9,1.6 3.4,1.6 1.4,0 2.9,-0.6 4.1,-1.6 0.4,0.6 0.9,1 1.6,1.3 1,0.3 1.6,0.3 2.3,0.3 0.3,0 0.7,-0.1 0.8,-0.1 0.1,-0.1 0.1,-0.2 0.2,-0.3 0.1,-0.2 0.2,-0.4 0.3,-0.6 0.1,-0.2 0.2,-0.4 0.3,-0.6 0.1,-0.2 0.2,-0.4 0.3,-0.6 0.1,-0.1 0.1,-0.3 0.2,-0.4 -0.3,0.2 -0.7,0.2 -1.2,0.2 z"
   id="path28" />
		</g>
	</g>
</svg>
